<svg width="26" height="23" viewBox="0 0 26 23" fill="none" xmlns="http://www.w3.org/2000/svg">
<path d="M5.68266 17.5922L6.3851 18.5468L6.85339 19.1925L7.53241 19.7259L8.67973 20.512L9.52266 21.1297L10.2251 21.3262L10.787 21.5789L11.3958 21.6912L12.1451 21.7754H12.7773H13.3158L13.9246 21.6912L14.4397 21.5789L15.2124 21.3262L15.7041 21.1297L16.43 20.7366L17.0388 20.3717L17.4836 20.0348L17.9988 19.5856L18.5607 19.0241L19.0524 18.4626L19.5675 17.6765L20.0124 16.9184L20.4339 16.0201L20.7617 15.1217L21.0192 14.2233L21.2066 13.1845V11.6965L21.1129 9.56283L20.9724 8.46791L20.9022 8.24331L20.8553 8.04679L20.7383 7.59759L20.5744 7.1484L20.387 6.72727L20.1529 6.16577L19.8251 5.52005L19.4739 4.98663L19.1227 4.48128L18.5139 3.72326L18.3031 3.49866L18.1158 3.33021L17.8583 3.07754L17.5773 2.82487L17.2261 2.54412L16.8514 2.29144L16.1958 1.87032L15.6339 1.61765L14.9783 1.3369L14.3695 1.16845L13.8075 1.05615L13.2924 1H12.4729H11.8173L11.1851 1.1123L10.5061 1.28075L9.87388 1.50535L9.429 1.72995L8.86705 2.0107L8.28168 2.40374L7.57924 2.93717L6.90022 3.58289L6.17436 4.45321L5.56558 5.3516L5.09729 6.22192L4.74607 7.06417L4.4651 7.90642L4.23095 8.80481L4.04363 9.89973L3.97339 11.135L3.9968 12.2299L4.13729 13.2687L4.44168 14.6725L4.629 15.3463L5.21436 16.7219L5.68266 17.5922Z" fill="white" stroke="black" stroke-width="0.1"/>
<path d="M18.3971 2.65636L17.6712 2.88095L17.9522 3.13363L18.3034 3.41438L18.561 3.7232L18.7951 3.97587L19.1698 4.48122H19.4741L19.9893 4.5093L20.5044 4.64967L20.9961 4.84619L21.3707 5.21117L21.6283 5.68844L21.6985 6.22186L21.6283 6.86758L21.3707 7.62561L21.0195 8.4117L20.3405 9.5347L19.6615 10.5173L18.6546 11.6684L17.5073 12.7633L16.2663 13.8863L14.838 14.9531L13.5502 15.8235L11.7707 16.8342L10.2722 17.5641L8.89073 18.0975L7.27512 18.4906L6.38537 18.5748L5.58927 18.6029L5.19122 18.5467L4.6761 18.3502L4.18439 18.0133L3.85659 17.508L3.73951 16.9465L3.80976 16.385L3.92683 15.8796L4.18439 15.1497L4.41854 14.6443L4.18439 13.7459L4.11415 13.2967L3.97366 12.3422L3.57561 12.7914L3.22439 13.2967L2.70927 14.0828L2.24098 14.8689L1.91317 15.4304L1.58537 16.1884L1.37463 16.8061L1.09366 17.7887L1 18.266V19.1644L1.14049 19.7259L1.37463 20.2593L1.67902 20.7366L2.2878 21.3261L2.96683 21.635L3.83317 21.9157L4.60585 21.9999H5.6361L6.66634 21.9157L8.0478 21.5507L9.33561 21.1577L10.6 20.6523L11.0683 20.4277L12.1688 19.9224L13.1756 19.3328L14.6273 18.5187L16.7112 17.1149L18.3502 15.7954L19.7317 14.4759L21.2068 13.016L21.5815 12.5949L22.0029 12.0895L22.6117 11.3034L23.0566 10.6858L23.5951 9.84352L23.9932 9.11357L24.321 8.43978L24.5551 7.87828L24.7659 7.28871L24.8829 6.75529L24.9766 6.19379L25 5.80074V5.26732L24.9298 4.81812L24.719 4.14432L24.3444 3.55475L23.9463 3.13363L23.361 2.74058L22.7756 2.51598L21.8156 2.31946L20.9493 2.29138L20.0361 2.34753L19.3102 2.45983L18.3971 2.65636Z" fill="white" stroke="black" stroke-width="0.1"/>
</svg>
