<svg width="18" height="18" viewBox="0 0 18 18" fill="none" xmlns="http://www.w3.org/2000/svg">
<path d="M0.938053 17.8594L0.513274 17.5605L0.141593 17.0684L0.0707965 16.6641L0 15.6445L0.0707965 15.1875L0.141593 14.9766L0.265487 14.6777L0.513274 14.3789L0.831858 14.1504L1.30973 14.0098L1.9115 13.9395L3.55752 12.3047L2.40708 11.1094L2.28319 10.9512V10.6699L2.40708 10.3711L2.88496 9.93164L3.27434 9.5625L3.71681 9.26367L4.0708 9.19336H4.58407L4.95575 9.33398L5.78761 10.002L6.76106 10.9512L8.10619 12.3047L8.77876 13.1309L8.88496 13.3945V13.6055V14.1504L8.70796 14.5195L8.31858 14.9766L7.89381 15.416L7.43363 15.7852H7.25664L7.02655 15.7148L5.78761 14.5195L4.0708 16.1895V16.6641L3.9292 17.0684L3.71681 17.4375L3.45133 17.6836L3.09735 17.8594L2.88496 17.9297L2.56637 18H1.9823H1.53982L0.938053 17.8594Z" fill="white"/>
<path d="M8.63722 13.1309L7.94695 12.3047L16.2655 5.50195L16.8319 1.17773L12.4779 1.79297L10.0178 4.79883L5.64607 10.0195L4.84961 9.31641L7.0443 6.69727L9.38058 3.90234L11.8054 0.984375L11.9293 0.861328L12.0885 0.791016L17.5399 0L17.7169 0.0527344L17.9116 0.193359L18.0001 0.439453L17.2036 6.04688L13.5753 9.05273L8.63722 13.1309Z" fill="white"/>
</svg>
